<svg viewBox="0 0 256 256" xmlns="http://www.w3.org/2000/svg"><g fill="#fff"><path d="m214 108a9.87 9.87 0 0 1 9.85 10.9 96.47 96.47 0 0 1 -191.7 0 9.87 9.87 0 0 1 9.85-10.9z"/><path d="m124.25 6.14v76.52c0 3.53-.12 7.08 0 10.61v.16a3.75 3.75 0 0 0 7.5 0v-76.53c0-3.52.12-7.08 0-10.6v-.16a3.75 3.75 0 1 0 -7.5 0z"/><path d="m105.93 48.86 16.83 16.83 2.39 2.4a3.75 3.75 0 0 0 5.31-5.31l-16.83-16.78-2.4-2.39a3.75 3.75 0 0 0 -5.3 5.3z"/><path d="m144.77 43.56-16.83 16.83-2.4 2.39a3.75 3.75 0 1 0 5.31 5.31l16.83-16.84 2.39-2.39a3.75 3.75 0 1 0 -5.3-5.3z"/><path d="m105.93 20.42 16.83 16.83 2.39 2.4a3.75 3.75 0 1 0 5.31-5.31l-16.83-16.83-2.4-2.39a3.75 3.75 0 0 0 -5.3 5.3z"/><path d="m144.77 15.12-16.83 16.88-2.4 2.39a3.75 3.75 0 1 0 5.31 5.31l16.83-16.84 2.39-2.39a3.75 3.75 0 1 0 -5.3-5.3z"/><path d="m48.1 57.5 7.71 3.87 18.66 9.37 22.47 11.26 19.54 9.81c3.16 1.59 6.3 3.23 9.49 4.76a.61.61 0 0 0 .14.07 3.84 3.84 0 0 0 5.13-1.34 3.79 3.79 0 0 0 -1.35-5.13l-7.71-3.88-18.66-9.29-22.47-11.34-19.54-9.81c-3.16-1.58-6.3-3.22-9.48-4.76l-.15-.09a3.84 3.84 0 0 0 -5.13 1.35 3.79 3.79 0 0 0 1.35 5.15z"/><path d="m78.08 93.21 22.63-7.5 3.18-1a3.83 3.83 0 0 0 2.62-4.71 3.78 3.78 0 0 0 -4.61-2.62l-22.63 7.5-3.18 1.12a3.83 3.83 0 0 0 -2.62 4.61 3.79 3.79 0 0 0 4.61 2.62z"/><path d="m90.9 55.88 7.5 22.63 1 3.18a3.84 3.84 0 0 0 4.62 2.62 3.79 3.79 0 0 0 2.62-4.61l-7.5-22.63-1.06-3.18a3.83 3.83 0 0 0 -4.61-2.62 3.78 3.78 0 0 0 -2.62 4.61z"/><path d="m52.67 80.45 22.62-7.45 3.19-1.06a3.75 3.75 0 1 0 -2-7.23l-22.62 7.5-3.19 1.06a3.84 3.84 0 0 0 -2.62 4.61 3.8 3.8 0 0 0 4.62 2.62z"/><path d="m65.48 43.12 7.52 22.62 1 3.19a3.83 3.83 0 0 0 4.61 2.62 3.79 3.79 0 0 0 2.62-4.61l-7.5-22.63-1.06-3.18a3.75 3.75 0 1 0 -7.23 2z"/><path d="m204.12 51-7.72 3.87-18.65 9.37-22.48 11.32-19.54 9.81c-3.15 1.58-6.41 3-9.48 4.76l-.14.07a3.75 3.75 0 0 0 3.78 6.48l7.72-3.88 18.65-9.36 22.48-11.29 19.54-9.81c3.15-1.58 6.41-3 9.48-4.76l.14-.07a3.75 3.75 0 1 0 -3.78-6.51z"/><path d="m179.91 86-22.63-7.5-3.18-1a3.77 3.77 0 0 0 -4.61 2.62 3.83 3.83 0 0 0 2.62 4.61l22.62 7.5 3.19 1.06a3.79 3.79 0 0 0 4.61-2.62 3.84 3.84 0 0 0 -2.62-4.67z"/><path d="m157.87 53.9-7.5 22.63-1.06 3.18a3.79 3.79 0 0 0 2.62 4.61 3.84 3.84 0 0 0 4.62-2.62l7.5-22.62 1-3.19a3.77 3.77 0 0 0 -2.62-4.61 3.84 3.84 0 0 0 -4.61 2.62z"/><path d="m205.33 73.23-22.63-7.5-3.18-1a3.78 3.78 0 0 0 -4.62 2.62 3.84 3.84 0 0 0 2.62 4.61l22.63 7.5 3.18 1.06a3.8 3.8 0 0 0 4.67-2.67 3.85 3.85 0 0 0 -2.62-4.62z"/><path d="m183.29 41.14-7.5 22.62-1.06 3.24a3.77 3.77 0 0 0 2.62 4.61 3.83 3.83 0 0 0 4.65-2.67l7.5-22.62 1.06-3.19a3.78 3.78 0 0 0 -2.62-4.61 3.83 3.83 0 0 0 -4.61 2.62z"/><path d="m195.91 207.42c-10.9 0-20.65 3.21-27.16 8.27a36.44 36.44 0 0 1 -24.08 7.95l-107.26-5.25a12.21 12.21 0 0 0 -12.8 12.2 12.2 12.2 0 0 0 12.8 12.19l107.26-5.25a36.44 36.44 0 0 1 24.08 7.95c6.51 5.06 16.26 8.27 27.16 8.27 19.6 0 35.48-10.37 35.48-23.16s-15.88-23.17-35.48-23.17z"/></g></svg>