<svg enable-background="new 0 0 2500 300.5" viewBox="0 0 2500 300.5" xmlns="http://www.w3.org/2000/svg"><path d="m0-.3h2508v301.1h-2508z" fill="#465d58"/><g fill="#fff"><path d="m444.2 162.1c0 28-24.9 48.1-62.3 48.1-33.4 0-60.8-16.3-60.8-37.6 0-9.4 7.1-16.5 17.2-16.5 9.1 0 16 7.1 16 16.5s-6.9 16.5-16 16.5c-.9 0-1.8 0-2.7-.2 7.8 9.1 21.6 14.9 37.8 14.9 20.9 0 36.1-9.6 36.1-23.8 0-15.1-17.1-22.4-36.1-30.7-23.5-10-50.3-20.9-50.3-51s25.6-48.3 60.3-48.3c30.8 0 54.7 14.9 54.7 35.2 0 9.4-7.1 16.5-16 16.5-10 0-17.1-7.1-17.1-16.5s7.1-16.5 17.1-16.5h1.3c-7.1-7.8-19.1-12.5-32.9-12.5-20.1 0-34.7 10.7-34.7 25.6 0 16.7 18.5 24 38.5 32 24 9.5 49.9 19.8 49.9 48.3z"/><path d="m564.6 190.3c-6.2 11.4-24 19.8-45.4 19.8-35.8 0-62.8-24.9-62.8-57.9s26.9-57.8 62.6-57.8c25.8 0 45.4 13.8 45.4 32 0 10-7.5 17.8-17.6 17.8-10.9 0-18.9-7.8-18.9-17.8s8-18 18.9-18c1.4 0 2.7.2 4 .7-4.4-4.3-10.9-6.7-18.5-6.7-20.9 0-33.2 18.5-33.2 49.9s12.9 49.4 34.7 49.4c11.1 0 21.6-5.8 26-14.2z"/><path d="m675.9 119.6c0 10.2-7.6 18-17.6 18s-18.7-7.8-18.7-18 8-18.1 18.7-18.1h.7c-2.9-1.5-6.1-2.2-9.3-2.2-12.9 0-23.6 9.8-28.3 25.2v83.4h-41.9v-105.9l41.9-6.4v18.9c5.8-12.5 16.2-20 29.1-20 15.3-.1 25.4 9.9 25.4 25.1z"/><path d="m802 95.5v112.4h-41.8v-17.8c-7.8 12.4-21.4 20-36.1 20.1-20.4 0-36.9-15.4-36.9-36.3v-71.9l41.8-6.4v87.9c0 8 5.3 14 12.5 14 7.1 0 14.5-6.9 18.7-17.2v-78.3z"/><path d="m1012 130.7v77.2h-41.9v-86.8c0-8-5.1-14-12-14s-15.1 7.5-18.9 18.5c.2 1.7.3 3.4.2 5.1v77.2h-41.8v-86.8c0-8-5.2-14-12-14s-14.5 7.1-18.5 17.3v83.4h-41.8v-105.8l41.8-6.4v18.9c7.6-12 20.9-20 35.8-20 16 0 29.4 9.5 34.5 23.8 7-14.5 21.7-23.8 37.8-23.8 20.5-.1 36.8 15.3 36.8 36.2z"/><path d="m1157.5 152.3c0 33-20.5 57.9-47.6 57.9-13.5 0-26.2-6.4-34.2-17.2v63.9h-41.9v-154.9l41.9-6.4v16.9c7.3-10.9 20.4-18 34.7-18 26.8-.1 47.1 24.8 47.1 57.8zm-42.7 0c0-27.6-8.5-46-20.5-46-7.6 0-14.5 6.2-18.7 16v61.4c4.2 9.1 10.6 14.7 17.8 14.7 12.9 0 21.4-18.3 21.4-46.1z"/><path d="m1246.6 191.9c-2 10.7-17.4 18.3-34.1 18.3-22.1 0-37.8-13.4-37.8-31.2v-77.9h-12.7v-4.4h12.7v-23.7l41.8-8.5v32.1h25.8v4.4h-25.8v84.6c0 8.6 5.4 15.1 12.7 15.1 6 0 11.8-4.7 13.9-10.7z"/><path d="m1255 65.2c0-12.5 9.6-21.6 22.5-21.6s21.2 9.1 21.2 21.6-8.9 21.8-21.2 21.8-22.5-9.3-22.5-21.8zm.9 36.8 41.8-6.4v112.4h-41.8z"/><path d="m1315.5 152.3c0-32.9 26.7-57.8 61.9-57.8s61.9 24.9 61.9 57.8-26.5 57.9-61.9 57.9-61.9-25-61.9-57.9zm81 0c0-33.8-7.1-53.4-19.1-53.4s-19.2 19.6-19.2 53.4 7.1 53.4 19.2 53.4 19.1-19.6 19.1-53.4z"/><path d="m1570.2 95.5v112.4h-41.8v-17.8c-7.6 12-21.2 20.1-36.1 20.1-20.5 0-37-15.4-37-36.3v-71.9l41.8-6.4v87.9c0 8 5.4 14 12.5 14s14.5-6.9 18.7-17.2v-78.3z"/><path d="m1686.6 174.3c0 21.1-17.8 35.8-49.9 35.8-27.6 0-48.3-10.9-48.8-24.3v-.2c0-8.5 6.3-14.5 15.1-14.5 7.8 0 13.8 6 13.8 14.5 0 7.3-4.7 12.9-10.9 14.2 6.4 3.1 15.1 5.1 25.3 5.1 15.4 0 25.8-4.7 25.8-13.6 0-7.8-9.3-12.5-26.7-20.7-14-6.5-42.1-15.8-42.1-41.2 0-21.6 19.6-35.1 49.2-35.1 24.7 0 43.2 9.5 43.6 21.8v.2c0 8.5-6 14.5-14 14.5s-14.9-6-14.9-14.5c0-6.6 4-11.8 9.8-13.6-5.4-2.2-11.8-3.3-19.4-3.3-14.9 0-24.7 4.9-24.7 14s9.4 12.7 26.5 20.3c17.3 7.7 42.3 16.1 42.3 40.6z"/><path d="m1874.2 162.1c0 28-24.9 48.1-62.3 48.1-33.4 0-60.7-16.3-60.7-37.6 0-9.4 7.1-16.5 17.1-16.5 9.1 0 16 7.1 16 16.5s-6.9 16.5-16 16.5c-.9 0-1.8 0-2.7-.2 7.8 9.1 21.6 14.9 37.8 14.9 20.9 0 36-9.6 36-23.8 0-15.1-17.1-22.4-36-30.7-23.6-10-50.3-20.9-50.3-51s25.6-48.3 60.3-48.3c30.8 0 54.8 14.9 54.8 35.2 0 9.4-7.1 16.5-16.1 16.5-10 0-17.1-7.1-17.1-16.5s7.1-16.5 17.1-16.5h1.4c-7.1-7.8-19.2-12.5-33-12.5-20.1 0-34.7 10.7-34.7 25.6 0 16.7 18.5 24 38.5 32 24.1 9.5 49.9 19.8 49.9 48.3z"/><path d="m2056.5 96.6-48.8 111.3h-13.6l-28-64.1-28 64.1h-13.6l-48.8-111.3h44.3l30 69.9 12.9-29.6-17.6-40.3h44.3l30 69.6 30.5-69.6z"/><path d="m2169.1 179.2c0 17.6-22.7 31-50.3 31-38.3 0-65.4-24.9-65.4-58.3s26.9-57.4 60.6-57.4c32.5 0 56.1 23.1 56.1 54.1h-73.9c.2 37.8 12.9 53.9 35.6 53.9 7.6 0 14.2-1.8 19.4-5.1-10.7 0-18.5-7.8-18.5-18.1s8-18 18.9-18c9.7-.1 17.5 7.6 17.5 17.9zm-73-35.1h35.2c-.4-29-6.9-45.2-16.9-45.2-11.1-.1-17.8 19.3-18.3 45.2z"/><path d="m2298.7 179.2c0 17.6-22.7 31-50.3 31-38.3 0-65.4-24.9-65.4-58.3s26.9-57.4 60.6-57.4c32.5 0 56.1 23.1 56.1 54.1h-73.9c.2 37.8 12.9 53.9 35.6 53.9 7.6 0 14.2-1.8 19.3-5.1-10.6 0-18.5-7.8-18.5-18.1s8-18 18.9-18c9.8-.1 17.6 7.6 17.6 17.9zm-73.1-35.1h35.2c-.4-29-6.9-45.2-16.9-45.2-11.1-.1-17.8 19.3-18.3 45.2z"/><path d="m2388.8 191.9c-2 10.7-17.3 18.3-34.1 18.3-22 0-37.8-13.4-37.8-31.2v-77.9h-12.7v-4.4h12.7v-23.7l41.9-8.5v32.1h25.8v4.4h-25.8v84.6c0 8.6 5.3 15.1 12.7 15.1 6 0 11.7-4.7 13.8-10.7z"/><path d="m2491.4 174.3c0 21.1-17.8 35.8-49.9 35.8-27.6 0-48.3-10.9-48.8-24.3v-.2c0-8.5 6.3-14.5 15.1-14.5 7.8 0 13.8 6 13.8 14.5 0 7.3-4.7 12.9-10.9 14.2 6.4 3.1 15.1 5.1 25.4 5.1 15.3 0 25.8-4.7 25.8-13.6 0-7.8-9.4-12.5-26.7-20.7-14.1-6.5-42.1-15.8-42.1-41.2 0-21.6 19.6-35.1 49.2-35.1 24.7 0 43.2 9.5 43.6 21.8v.2c0 8.5-6 14.5-14 14.5s-14.9-6-14.9-14.5c0-6.6 4-11.8 9.8-13.6-5.3-2.2-11.8-3.3-19.4-3.3-14.9 0-24.7 4.9-24.7 14s9.3 12.7 26.5 20.3c17.4 7.7 42.2 16.1 42.2 40.6z"/><path d="m172 100.2c5.1 0 9.1 4.4 8.6 9.5-4.7 41.9-40.2 74.4-83.4 74.4s-78.7-32.6-83.4-74.4c-.6-5.1 3.5-9.5 8.6-9.5z"/><path d="m93.5 11.6v25.7 40.9 9.4c0 2 1.7 3.8 3.8 3.8 2-.1 3.8-1.6 3.8-3.8 0-8.6 0-17.1 0-25.7 0-13.6 0-27.3 0-40.9 0-3.1 0-6.2 0-9.4 0-2-1.7-3.8-3.8-3.8-2.1.1-3.8 1.6-3.8 3.8z"/><path d="m77.7 49.1c4.9 4.9 9.8 9.8 14.6 14.6l2.1 2.1c1.4 1.4 3.9 1.5 5.3 0s1.5-3.8 0-5.3c-4.9-4.9-9.8-9.8-14.6-14.6-.7-.7-1.4-1.4-2.1-2.1-1.4-1.4-3.9-1.5-5.3 0s-1.5 3.8 0 5.3z"/><path d="m111.5 43.8c-4.9 4.9-9.8 9.8-14.6 14.6-.7.7-1.4 1.4-2.1 2.1-1.4 1.4-1.5 3.9 0 5.3s3.8 1.5 5.3 0c4.9-4.9 9.8-9.8 14.6-14.6.7-.7 1.4-1.4 2.1-2.1 1.4-1.4 1.5-3.9 0-5.3s-3.9-1.5-5.3 0z"/><path d="m77.7 24.3c4.9 4.9 9.8 9.8 14.6 14.6.7.7 1.4 1.4 2.1 2.1 1.4 1.4 3.9 1.5 5.3 0s1.5-3.8 0-5.3c-4.9-4.9-9.8-9.8-14.6-14.6-.7-.7-1.4-1.4-2.1-2.1-1.4-1.4-3.9-1.5-5.3 0s-1.5 3.8 0 5.3z"/><path d="m111.5 19c-4.9 4.9-9.8 9.8-14.6 14.6-.7.7-1.4 1.4-2.1 2.1-1.4 1.4-1.5 3.9 0 5.3s3.8 1.5 5.3 0c4.9-4.9 9.8-9.8 14.6-14.6.7-.7 1.4-1.4 2.1-2.1 1.4-1.4 1.5-3.9 0-5.3s-3.9-1.5-5.3 0z"/><path d="m27.5 56.7c7.6 3.8 15.3 7.7 22.9 11.5 12.2 6.1 24.4 12.2 36.6 18.3l8.4 4.2c1.8.9 4.1.5 5.1-1.3 1-1.7.5-4.2-1.3-5.1-7.6-3.8-15.3-7.7-22.9-11.5-12.3-6.2-24.5-12.3-36.7-18.4-2.8-1.4-5.6-2.8-8.4-4.2-1.8-.9-4.1-.5-5.1 1.3-1 1.7-.5 4.2 1.4 5.2z"/><path d="m53.9 87.8c6.6-2.2 13.1-4.3 19.7-6.5.9-.3 1.9-.6 2.8-.9 1.9-.6 3.3-2.6 2.6-4.6-.6-1.9-2.6-3.3-4.6-2.6-6.6 2.2-13.1 4.3-19.7 6.5-.9.3-1.9.6-2.8.9-1.9.6-3.3 2.6-2.6 4.6.6 1.8 2.6 3.2 4.6 2.6z"/><path d="m64.5 55c2.2 6.6 4.3 13.1 6.5 19.7.3.9.6 1.9.9 2.8.6 1.9 2.6 3.3 4.6 2.6 1.9-.6 3.3-2.6 2.6-4.6-2.2-6.6-4.3-13.1-6.5-19.7-.3-.9-.6-1.9-.9-2.8-.6-1.9-2.6-3.3-4.6-2.6-1.9.5-3.3 2.6-2.6 4.6z"/><path d="m31.8 76.7c6.6-2.2 13.1-4.3 19.7-6.5.9-.3 1.9-.6 2.8-.9 1.9-.6 3.3-2.6 2.6-4.6-.6-1.9-2.6-3.3-4.6-2.6-6.6 2.2-13.1 4.3-19.7 6.5-.9.3-1.9.6-2.8.9-1.9.6-3.3 2.6-2.6 4.6.6 1.8 2.6 3.2 4.6 2.6z"/><path d="m42.4 43.9c2.2 6.6 4.3 13.1 6.5 19.7.3.9.6 1.9.9 2.8.6 1.9 2.6 3.3 4.6 2.6 1.9-.6 3.3-2.6 2.6-4.6-2.2-6.6-4.3-13.1-6.5-19.7-.3-.9-.6-1.9-.9-2.8-.6-1.9-2.6-3.3-4.6-2.7-1.9.6-3.3 2.7-2.6 4.7z"/><path d="m163.2 50.2c-7.6 3.8-15.3 7.7-22.9 11.5-12.2 6.1-24.4 12.2-36.6 18.4-2.8 1.4-5.6 2.8-8.4 4.2-1.8.9-2.3 3.5-1.3 5.1 1.1 1.8 3.3 2.3 5.1 1.3 7.6-3.8 15.3-7.7 22.9-11.5 12.2-6.1 24.4-12.2 36.6-18.4 2.8-1.4 5.6-2.8 8.4-4.2 1.8-.9 2.3-3.5 1.3-5.1-1.1-1.8-3.3-2.2-5.1-1.3z"/><path d="m142.5 80.5c-6.6-2.2-13.1-4.3-19.7-6.5-.9-.3-1.9-.6-2.8-.9-1.9-.6-4.2.7-4.6 2.6-.5 2.1.6 4 2.6 4.6 6.6 2.2 13.1 4.3 19.7 6.5.9.3 1.9.6 2.8.9 1.9.6 4.2-.7 4.6-2.6.5-2-.6-3.9-2.6-4.6z"/><path d="m122.7 53c-2.2 6.6-4.3 13.1-6.5 19.7-.3.9-.6 1.9-.9 2.8-.6 1.9.7 4.2 2.6 4.6 2.1.5 4-.6 4.6-2.6 2.2-6.6 4.3-13.1 6.5-19.7.3-.9.6-1.9.9-2.8.6-1.9-.7-4.2-2.6-4.6-2-.5-3.9.6-4.6 2.6z"/><path d="m164.6 69.4c-6.6-2.2-13.1-4.3-19.7-6.5-.9-.3-1.9-.6-2.8-.9-1.9-.6-4.2.7-4.6 2.6-.5 2.1.6 4 2.6 4.6 6.6 2.2 13.1 4.3 19.7 6.5.9.3 1.9.6 2.8.9 1.9.6 4.2-.7 4.6-2.6.5-2-.6-3.9-2.6-4.6z"/><path d="m144.8 41.9c-2.2 6.6-4.3 13.1-6.5 19.7-.3.9-.6 1.9-.9 2.8-.6 1.9.7 4.2 2.6 4.6 2.1.5 4-.6 4.6-2.6 2.2-6.6 4.3-13.1 6.5-19.7.3-.9.6-1.9.9-2.8.6-1.9-.7-4.2-2.6-4.6-2-.5-3.9.6-4.6 2.6z"/><path d="m156.3 186.6c-9.5 0-18 2.8-23.6 7.2-6 4.7-13.3 7.3-20.9 6.9-29.6-1.5-93.3-4.6-93.3-4.6-6.1-.3-11.1 4.5-11.1 10.6 0 6.1 5.1 10.9 11.1 10.6 0 0 63.7-3.1 93.3-4.6 7.6-.4 14.9 2.3 20.9 6.9 5.7 4.4 14.1 7.2 23.6 7.2 17 0 30.9-9 30.9-20.2 0-10.9-13.9-20-30.9-20z"/></g></svg>