<?xml version="1.0" encoding="utf-8"?>
<!-- Generator: Adobe Illustrator 24.0.1, SVG Export Plug-In . SVG Version: 6.00 Build 0)  -->
<svg version="1.1" id="Layer_1" xmlns="http://www.w3.org/2000/svg" xmlns:xlink="http://www.w3.org/1999/xlink" x="0px" y="0px"
	 viewBox="0 0 2842.7 341.7" style="enable-background:new 0 0 2842.7 341.7;" xml:space="preserve">
<style type="text/css">
	.st0{fill:#465D58;}
	.st1{fill:#FFFFFF;}
</style>
<path class="st0" d="M-40.3,0h2883.1v341.7H-40.3L-40.3,0z"/>
<g>
	<path class="st1" d="M500.4,184.3c0,31.8-28.3,54.6-70.7,54.6c-37.9,0-69-18.5-69-42.7c0-10.6,8.1-18.7,19.5-18.7
		c10.3,0,18.2,8.1,18.2,18.7c0,10.6-7.9,18.7-18.2,18.7c-1,0-2,0-3-0.3c8.8,10.4,24.5,16.9,42.9,16.9c23.8,0,40.9-10.9,40.9-27
		c0-17.2-19.4-25.5-40.9-34.8c-26.7-11.4-57-23.8-57-57.9s29.1-54.8,68.4-54.8c34.9,0,62.1,16.9,62.1,39.9c0,10.6-8,18.7-18.2,18.7
		c-11.4,0-19.4-8-19.4-18.7s8-18.7,19.4-18.7h1.5c-8-8.9-21.7-14.1-37.4-14.1c-22.8,0-39.4,12.1-39.4,29.1c0,18.9,21,27.3,43.7,36.3
		C471.1,140.3,500.4,151.9,500.4,184.3L500.4,184.3z"/>
	<path class="st1" d="M637.1,216.3c-7,12.9-27.3,22.5-51.5,22.5c-40.7,0-71.2-28.3-71.2-65.7s30.6-65.6,71-65.6
		c29.3,0,51.5,15.7,51.5,36.3c0,11.4-8.6,20.2-19.9,20.2c-12.4,0-21.5-8.9-21.5-20.2s9.1-20.4,21.5-20.4c1.5,0,3.1,0.3,4.5,0.8
		c-5-4.8-12.4-7.6-20.9-7.6c-23.8,0-37.7,21-37.7,56.6s14.7,56.1,39.4,56.1c12.6,0,24.5-6.5,29.6-16.2L637.1,216.3z"/>
	<path class="st1" d="M763.4,136c0,11.6-8.6,20.4-20,20.4c-11.4,0-21.2-8.9-21.2-20.4s9.1-20.5,21.2-20.5h0.8
		c-3.3-1.7-6.9-2.5-10.6-2.5c-14.7,0-26.8,11.1-32.1,28.5v94.7H654V116l47.5-7.3v21.4c6.5-14.1,18.4-22.7,33.1-22.7
		C752,107.5,763.4,118.8,763.4,136L763.4,136z"/>
	<path class="st1" d="M906.6,108.7v127.5h-47.5v-20.2c-8.9,14.1-24.3,22.7-40.9,22.8c-23.2,0-41.9-17.5-41.9-41.2V116l47.5-7.3v99.8
		c0,9.1,6,15.9,14.1,15.9c8.1,0,16.4-7.9,21.2-19.5V116L906.6,108.7z"/>
	<path class="st1" d="M1144.9,148.6v87.7h-47.5v-98.5c0-9.1-5.8-15.9-13.6-15.9c-7.9,0-17.2,8.6-21.4,20.9c0.2,1.9,0.3,3.9,0.3,5.8
		v87.7H1015v-98.5c0-9.1-5.8-15.9-13.6-15.9s-16.4,8-21,19.7v94.7h-47.5V116l47.5-7.3v21.4c8.6-13.6,23.8-22.7,40.7-22.7
		c18.2,0,33.3,10.8,39.2,27c8-16.5,24.6-27,42.9-27C1126.4,107.5,1144.9,124.9,1144.9,148.6L1144.9,148.6z"/>
	<path class="st1" d="M1310,173.1c0,37.4-23.3,65.7-54.1,65.7c-15.3,0-29.7-7.2-38.9-19.5v72.5h-47.5V116l47.5-7.3v19.2
		c8.3-12.4,23.2-20.4,39.4-20.4C1287,107.5,1310,135.8,1310,173.1L1310,173.1z M1261.6,173.1c0-31.3-9.6-52.3-23.3-52.3
		c-8.6,0-16.4,7-21.2,18.2v69.7c4.8,10.3,12.1,16.7,20.2,16.7C1251.9,225.4,1261.6,204.7,1261.6,173.1z"/>
	<path class="st1" d="M1411.1,218.1c-2.3,12.1-19.7,20.8-38.7,20.8c-25,0-42.9-15.2-42.9-35.4V115h-14.4v-5h14.4V83.2l47.5-9.6V110
		h29.3v5h-29.3v96c0,9.8,6.1,17.2,14.4,17.2c6.9,0,13.4-5.3,15.7-12.1L1411.1,218.1z"/>
	<path class="st1" d="M1420.7,74.3c0-14.1,10.9-24.5,25.5-24.5s24,10.3,24,24.5s-10.1,24.8-24,24.8S1420.7,88.5,1420.7,74.3z
		 M1421.7,116l47.5-7.3v127.5h-47.5V116z"/>
	<path class="st1" d="M1489.4,173.1c0-37.4,30.3-65.6,70.2-65.6s70.2,28.3,70.2,65.6s-30.1,65.7-70.2,65.7
		S1489.4,210.5,1489.4,173.1z M1581.3,173.1c0-38.4-8-60.6-21.7-60.6s-21.8,22.3-21.8,60.6s8.1,60.6,21.8,60.6
		S1581.3,211.5,1581.3,173.1z"/>
	<path class="st1" d="M1778.4,108.7v127.5h-47.5v-20.2c-8.6,13.6-24,22.8-40.9,22.8c-23.3,0-41.9-17.5-41.9-41.2V116l47.5-7.3v99.8
		c0,9.1,6.1,15.9,14.1,15.9s16.4-7.9,21.3-19.5V116L1778.4,108.7z"/>
	<path class="st1" d="M1910.5,198.2c0,24-20.2,40.7-56.6,40.7c-31.3,0-54.8-12.4-55.3-27.5V211c0-9.6,7.1-16.4,17.2-16.4
		c8.9,0,15.7,6.8,15.7,16.4c0,8.3-5.3,14.7-12.3,16.2c7.3,3.5,17.2,5.8,28.7,5.8c17.5,0,29.3-5.3,29.3-15.4
		c0-8.8-10.6-14.1-30.3-23.5c-15.9-7.4-47.7-18-47.7-46.8c0-24.5,22.3-39.9,55.8-39.9c28,0,49,10.8,49.5,24.7v0.3
		c0,9.6-6.8,16.5-15.9,16.5c-9.1,0-16.9-6.9-16.9-16.5c0-7.5,4.5-13.4,11.1-15.4c-6.1-2.5-13.4-3.8-22-3.8c-16.9,0-28,5.5-28,15.9
		s10.6,14.4,30.1,23S1910.5,170.4,1910.5,198.2L1910.5,198.2z"/>
	<path class="st1" d="M2123.4,184.3c0,31.8-28.3,54.6-70.7,54.6c-37.9,0-68.9-18.5-68.9-42.7c0-10.6,8-18.7,19.4-18.7
		c10.4,0,18.2,8.1,18.2,18.7c0,10.6-7.8,18.7-18.2,18.7c-1,0-2,0-3-0.3c8.8,10.4,24.5,16.9,42.9,16.9c23.7,0,40.9-10.9,40.9-27
		c0-17.2-19.4-25.5-40.9-34.8c-26.8-11.4-57.1-23.8-57.1-57.9s29.1-54.8,68.4-54.8c34.9,0,62.2,16.9,62.2,39.9
		c0,10.6-8.1,18.7-18.2,18.7c-11.3,0-19.4-8-19.4-18.7s8.1-18.7,19.4-18.7h1.6c-8.1-8.9-21.8-14.1-37.4-14.1
		c-22.8,0-39.4,12.1-39.4,29.1c0,18.9,21,27.3,43.7,36.3C2094.1,140.3,2123.4,151.9,2123.4,184.3L2123.4,184.3z"/>
	<path class="st1" d="M2330.3,110L2275,236.3h-15.4l-31.8-72.7l-31.8,72.7h-15.4L2125.2,110h50.3l34.1,79.3l14.7-33.6l-19.9-45.7
		h50.2l34.1,79l34.6-79H2330.3z"/>
	<path class="st1" d="M2458.1,203.7c0,20-25.8,35.2-57.1,35.2c-43.5,0-74.3-28.3-74.3-66.2s30.6-65.1,68.7-65.1
		c36.8,0,63.6,26.2,63.6,61.4h-83.9c0.3,42.9,14.7,61.1,40.4,61.1c8.6,0,16.2-2,22-5.8c-12.1,0-21-8.9-21-20.5s9.1-20.4,21.5-20.4
		C2449.3,183.3,2458.1,192.1,2458.1,203.7L2458.1,203.7z M2375.3,163.8h39.9c-0.5-32.9-7.9-51.3-19.2-51.3
		C2383.4,112.5,2375.8,134.5,2375.3,163.8z"/>
	<path class="st1" d="M2605.2,203.7c0,20-25.8,35.2-57.1,35.2c-43.5,0-74.3-28.3-74.3-66.2s30.6-65.1,68.7-65.1
		c36.8,0,63.6,26.2,63.6,61.4h-83.9c0.3,42.9,14.7,61.1,40.4,61.1c8.6,0,16.2-2,21.9-5.8c-12.1,0-20.9-8.9-20.9-20.5
		s9.1-20.4,21.5-20.4C2596.3,183.3,2605.2,192.1,2605.2,203.7L2605.2,203.7z M2522.3,163.8h39.9c-0.5-32.9-7.9-51.3-19.2-51.3
		C2530.4,112.5,2522.8,134.5,2522.3,163.8z"/>
	<path class="st1" d="M2707.5,218.1c-2.3,12.1-19.7,20.8-38.7,20.8c-25,0-42.9-15.2-42.9-35.4V115h-14.4v-5h14.4V83.2l47.5-9.6V110
		h29.3v5h-29.3v96c0,9.8,6,17.2,14.4,17.2c6.8,0,13.3-5.3,15.7-12.1L2707.5,218.1z"/>
	<path class="st1" d="M2823.9,198.2c0,24-20.2,40.7-56.6,40.7c-31.3,0-54.8-12.4-55.3-27.5V211c0-9.6,7.1-16.4,17.2-16.4
		c8.9,0,15.7,6.8,15.7,16.4c0,8.3-5.3,14.7-12.3,16.2c7.3,3.5,17.2,5.8,28.8,5.8c17.4,0,29.3-5.3,29.3-15.4
		c0-8.8-10.6-14.1-30.3-23.5c-16-7.4-47.8-18-47.8-46.8c0-24.5,22.3-39.9,55.8-39.9c28,0,49,10.8,49.5,24.7v0.3
		c0,9.6-6.8,16.5-15.9,16.5s-16.9-6.9-16.9-16.5c0-7.5,4.6-13.4,11.1-15.4c-6-2.5-13.4-3.8-22-3.8c-16.9,0-28,5.5-28,15.9
		s10.6,14.4,30.1,23C2795.7,160.8,2823.9,170.4,2823.9,198.2L2823.9,198.2z"/>
</g>
<g>
	<path class="st1" d="M191.6,114c5.8,0,10.4,5,9.7,10.8c-5.3,47.5-45.7,84.5-94.6,84.5s-89.3-36.9-94.6-84.5
		C11.4,119,16,114,21.8,114H191.6z"/>
	<g>
		<g>
			<g>
				<g>
					<path class="st1" d="M102.9,13.4c0,2.9,0,5.7,0,8.6c0,6.8,0,13.7,0,20.5c0,8.3,0,16.6,0,24.9c0,7.2,0,14.4,0,21.6
						c0,3.5-0.1,7,0,10.5c0,0,0,0.1,0,0.1c0,2,1.7,3.8,3.8,3.8c2-0.1,3.8-1.6,3.8-3.8c0-2.9,0-5.7,0-8.6c0-6.8,0-13.7,0-20.5
						c0-8.3,0-16.6,0-24.9c0-7.2,0-14.4,0-21.6c0-3.5,0.1-7,0-10.5c0,0,0-0.1,0-0.1c0-2-1.7-3.8-3.8-3.8
						C104.7,9.8,102.9,11.3,102.9,13.4L102.9,13.4z"/>
				</g>
			</g>
			<g>
				<g>
					<g>
						<path class="st1" d="M84.9,55.6c5.5,5.5,11.1,11.1,16.6,16.6c0.8,0.8,1.6,1.6,2.4,2.4c1.4,1.4,3.9,1.5,5.3,0
							c1.4-1.5,1.5-3.8,0-5.3c-5.5-5.5-11.1-11.1-16.6-16.6c-0.8-0.8-1.6-1.6-2.4-2.4c-1.4-1.4-3.9-1.5-5.3,0
							C83.5,51.8,83.4,54.2,84.9,55.6L84.9,55.6z"/>
					</g>
				</g>
				<g>
					<g>
						<path class="st1" d="M123.2,50.3c-5.5,5.5-11.1,11.1-16.6,16.6c-0.8,0.8-1.6,1.6-2.4,2.4c-1.4,1.4-1.5,3.9,0,5.3
							c1.5,1.4,3.8,1.5,5.3,0c5.5-5.5,11.1-11.1,16.6-16.6c0.8-0.8,1.6-1.6,2.4-2.4c1.4-1.4,1.5-3.9,0-5.3
							C127,49,124.7,48.9,123.2,50.3L123.2,50.3z"/>
					</g>
				</g>
			</g>
			<g>
				<g>
					<g>
						<path class="st1" d="M84.9,27.6c5.5,5.5,11.1,11.1,16.6,16.6c0.8,0.8,1.6,1.6,2.4,2.4c1.4,1.4,3.9,1.5,5.3,0
							c1.4-1.5,1.5-3.8,0-5.3c-5.5-5.5-11.1-11.1-16.6-16.6c-0.8-0.8-1.6-1.6-2.4-2.4c-1.4-1.4-3.9-1.5-5.3,0
							C83.5,23.8,83.4,26.1,84.9,27.6L84.9,27.6z"/>
					</g>
				</g>
				<g>
					<g>
						<path class="st1" d="M123.2,22.3c-5.5,5.5-11.1,11.1-16.6,16.6c-0.8,0.8-1.6,1.6-2.4,2.4c-1.4,1.4-1.5,3.9,0,5.3
							c1.5,1.4,3.8,1.5,5.3,0c5.5-5.5,11.1-11.1,16.6-16.6c0.8-0.8,1.6-1.6,2.4-2.4c1.4-1.4,1.5-3.9,0-5.3
							C127,20.9,124.7,20.8,123.2,22.3L123.2,22.3z"/>
					</g>
				</g>
			</g>
		</g>
		<g>
			<g>
				<g>
					<path class="st1" d="M27.8,64.2c2.5,1.3,5.1,2.6,7.6,3.8c6.1,3.1,12.2,6.1,18.4,9.2C61.2,81,68.6,84.7,76,88.4
						c6.4,3.2,12.9,6.5,19.3,9.7c3.1,1.6,6.2,3.2,9.3,4.7c0,0,0.1,0,0.1,0.1c1.8,0.9,4.1,0.5,5.1-1.3c1-1.7,0.5-4.2-1.3-5.1
						c-2.5-1.3-5.1-2.6-7.6-3.8c-6.1-3.1-12.2-6.1-18.4-9.2c-7.4-3.7-14.8-7.4-22.2-11.2c-6.4-3.2-12.9-6.5-19.3-9.7
						c-3.1-1.6-6.2-3.2-9.3-4.7c0,0-0.1,0-0.1-0.1c-1.8-0.9-4.1-0.5-5.1,1.3C25.5,60.7,26,63.3,27.8,64.2L27.8,64.2z"/>
				</g>
			</g>
			<g>
				<g>
					<g>
						<path class="st1" d="M57.4,99.4c7.4-2.5,14.8-4.9,22.3-7.4c1.1-0.4,2.1-0.7,3.2-1.1c1.9-0.6,3.2-2.6,2.6-4.6
							c-0.5-1.9-2.7-3.3-4.6-2.6c-7.4,2.5-14.8,4.9-22.3,7.4c-1.1,0.4-2.1,0.7-3.2,1.1c-1.9,0.6-3.2,2.6-2.6,4.6
							C53.3,98.7,55.5,100.1,57.4,99.4L57.4,99.4z"/>
					</g>
				</g>
				<g>
					<g>
						<path class="st1" d="M70,62.6c2.5,7.4,4.9,14.8,7.4,22.3c0.4,1.1,0.7,2.1,1.1,3.2c0.6,1.9,2.6,3.2,4.6,2.6
							c1.9-0.5,3.3-2.7,2.6-4.6c-2.5-7.4-4.9-14.8-7.4-22.3c-0.4-1.1-0.7-2.1-1.1-3.2c-0.6-1.9-2.6-3.2-4.6-2.6
							C70.8,58.5,69.4,60.6,70,62.6L70,62.6z"/>
					</g>
				</g>
			</g>
			<g>
				<g>
					<g>
						<path class="st1" d="M32.3,86.8c7.4-2.5,14.8-4.9,22.3-7.4c1.1-0.4,2.1-0.7,3.2-1.1c1.9-0.6,3.2-2.6,2.6-4.6
							c-0.5-1.9-2.7-3.3-4.6-2.6c-7.4,2.5-14.8,4.9-22.3,7.4c-1.1,0.4-2.1,0.7-3.2,1.1c-1.9,0.6-3.2,2.6-2.6,4.6
							C28.2,86.1,30.4,87.5,32.3,86.8L32.3,86.8z"/>
					</g>
				</g>
				<g>
					<g>
						<path class="st1" d="M44.9,50c2.5,7.4,4.9,14.8,7.4,22.3c0.4,1.1,0.7,2.1,1.1,3.2c0.6,1.9,2.6,3.2,4.6,2.6
							c1.9-0.5,3.3-2.7,2.6-4.6c-2.5-7.4-4.9-14.8-7.4-22.3c-0.4-1.1-0.7-2.1-1.1-3.2c-0.6-1.9-2.6-3.2-4.6-2.6
							C45.7,45.9,44.3,48,44.9,50L44.9,50z"/>
					</g>
				</g>
			</g>
		</g>
		<g>
			<g>
				<g>
					<path class="st1" d="M181.8,57.7c-2.5,1.3-5.1,2.6-7.6,3.8c-6.1,3.1-12.2,6.1-18.4,9.2c-7.4,3.7-14.8,7.4-22.2,11.2
						c-6.4,3.2-12.9,6.5-19.3,9.7c-3.1,1.6-6.3,3-9.3,4.7c0,0-0.1,0-0.1,0.1c-1.8,0.9-2.3,3.5-1.3,5.1c1.1,1.8,3.3,2.3,5.1,1.3
						c2.5-1.3,5.1-2.6,7.6-3.8c6.1-3.1,12.2-6.1,18.4-9.2c7.4-3.7,14.8-7.4,22.2-11.2c6.4-3.2,12.9-6.5,19.3-9.7
						c3.1-1.6,6.3-3,9.3-4.7c0,0,0.1,0,0.1-0.1c1.8-0.9,2.3-3.5,1.3-5.1C185.9,57.2,183.6,56.8,181.8,57.7L181.8,57.7z"/>
				</g>
			</g>
			<g>
				<g>
					<g>
						<path class="st1" d="M158,92.2c-7.4-2.5-14.8-4.9-22.3-7.4c-1.1-0.4-2.1-0.7-3.2-1.1c-1.9-0.6-4.2,0.7-4.6,2.6
							c-0.5,2.1,0.6,4,2.6,4.6c7.4,2.5,14.8,4.9,22.3,7.4c1.1,0.4,2.1,0.7,3.2,1.1c1.9,0.6,4.2-0.7,4.6-2.6
							C161,94.8,160,92.9,158,92.2L158,92.2z"/>
					</g>
				</g>
				<g>
					<g>
						<path class="st1" d="M136.1,60.6c-2.5,7.4-4.9,14.8-7.4,22.3c-0.4,1.1-0.7,2.1-1.1,3.2c-0.6,1.9,0.7,4.2,2.6,4.6
							c2.1,0.5,4-0.6,4.6-2.6c2.5-7.4,4.9-14.8,7.4-22.3c0.4-1.1,0.7-2.1,1.1-3.2c0.6-1.9-0.7-4.2-2.6-4.6
							C138.7,57.5,136.8,58.6,136.1,60.6L136.1,60.6z"/>
					</g>
				</g>
			</g>
			<g>
				<g>
					<g>
						<path class="st1" d="M183,79.6c-7.4-2.5-14.8-4.9-22.3-7.4c-1.1-0.4-2.1-0.7-3.2-1.1c-1.9-0.6-4.2,0.7-4.6,2.6
							c-0.5,2.1,0.6,4,2.6,4.6c7.4,2.5,14.8,4.9,22.3,7.4c1.1,0.4,2.1,0.7,3.2,1.1c1.9,0.6,4.2-0.7,4.6-2.6
							C186.1,82.2,185,80.3,183,79.6L183,79.6z"/>
					</g>
				</g>
				<g>
					<g>
						<path class="st1" d="M161.2,48c-2.5,7.4-4.9,14.8-7.4,22.3c-0.4,1.1-0.7,2.1-1.1,3.2c-0.6,1.9,0.7,4.2,2.6,4.6
							c2.1,0.5,4-0.6,4.6-2.6c2.5-7.4,4.9-14.8,7.4-22.3c0.4-1.1,0.7-2.1,1.1-3.2c0.6-1.9-0.7-4.2-2.6-4.6
							C163.8,44.9,161.9,46,161.2,48L161.2,48z"/>
					</g>
				</g>
			</g>
		</g>
	</g>
	<path class="st1" d="M173.7,212.1c-10.8,0-20.4,3.2-26.8,8.2c-6.8,5.3-15.1,8.3-23.8,7.9C89.6,226.5,17.3,223,17.3,223
		c-6.9-0.3-12.6,5.2-12.6,12v0c0,6.9,5.8,12.4,12.6,12c0,0,72.3-3.5,105.9-5.2c8.6-0.4,17,2.6,23.8,7.9c6.4,5,16.1,8.2,26.8,8.2
		c19.3,0,35-10.2,35-22.9C208.8,222.4,193.1,212.1,173.7,212.1z"/>
</g>
</svg>
