<svg id="Layer_1" data-name="Layer 1" xmlns="http://www.w3.org/2000/svg" viewBox="0 0 3977 508.2"><title>logo</title><rect x="-0.4" width="3977" height="508.2" fill="#465d58"/><path d="M251.7,275.4c0,50.6-45,86.8-112.5,86.8-60.2,0-109.7-29.4-109.7-67.9,0-16.9,12.9-29.8,31-29.8,16.4,0,28.9,12.9,28.9,29.8S76.9,324,60.5,324a19.5,19.5,0,0,1-4.8-.4c14,16.5,38.9,26.9,68.2,26.9,37.8,0,65.1-17.3,65.1-43,0-27.3-30.9-40.5-65.1-55.4-42.5-18.1-90.7-37.8-90.7-92S79.4,72.9,142,72.9c55.5,0,98.8,26.9,98.8,63.5,0,16.9-12.8,29.7-28.9,29.7-18.1,0-30.9-12.8-30.9-29.7s12.8-29.7,30.9-29.7h2.4c-12.8-14.1-34.5-22.5-59.4-22.5-36.2,0-62.7,19.3-62.7,46.2,0,30.1,33.4,43.4,69.5,57.8C205.1,205.5,251.7,224,251.7,275.4Z" fill="#fff"/><path d="M469,326.4c-11.2,20.5-43.4,35.8-81.9,35.8-64.7,0-113.3-45-113.3-104.5s48.6-104.4,112.9-104.4c46.6,0,81.9,24.9,81.9,57.8,0,18.1-13.6,32.2-31.7,32.2-19.7,0-34.2-14.1-34.2-32.2s14.5-32.5,34.2-32.5a22.7,22.7,0,0,1,7.2,1.2c-8-7.7-19.7-12.1-33.3-12.1-37.8,0-59.9,33.4-59.9,90s23.3,89.2,62.7,89.2c20.1,0,38.9-10.4,47-25.7Z" fill="#fff"/><path d="M669.9,198.7c0,18.4-13.7,32.5-31.8,32.5s-33.7-14.1-33.7-32.5,14.5-32.6,33.7-32.6h1.2a37.2,37.2,0,0,0-16.8-4c-23.3,0-42.6,17.7-51,45.4V358.1H495.9V166.9l75.6-11.6v34.1c10.4-22.5,29.3-36.1,52.6-36.1C651.8,153.3,669.9,171.3,669.9,198.7Z" fill="#fff"/><path d="M897.6,155.3V358.1H822.1V326A77.4,77.4,0,0,1,757,362.2c-36.9,0-66.6-27.8-66.6-65.5V166.9l75.5-11.6V314c0,14.4,9.6,25.3,22.5,25.3s26.1-12.5,33.7-31V166.9Z" fill="#fff"/><path d="M1276.5,218.7V358.1h-75.6V201.5c0-14.5-9.2-25.3-21.7-25.3s-27.3,13.6-34.1,33.3a70.8,70.8,0,0,1,.4,9.2V358.1H1070V201.5c0-14.5-9.3-25.3-21.7-25.3s-26.1,12.8-33.4,31.3V358.1H939.4V166.9l75.5-11.6v34.1c13.7-21.7,37.8-36.1,64.7-36.1,28.9,0,53,17.2,62.3,43a76.2,76.2,0,0,1,68.3-43C1247.1,153.3,1276.5,181,1276.5,218.7Z" fill="#fff"/><path d="M1539.2,257.7c0,59.5-37,104.5-86,104.5a77.2,77.2,0,0,1-61.8-31V446.5h-75.6V166.9l75.6-11.6v30.5c13.2-19.7,36.9-32.5,62.6-32.5C1502.6,153.3,1539.2,198.3,1539.2,257.7Zm-77.1,0c0-49.8-15.3-83.1-37-83.1-13.7,0-26.1,11.2-33.7,28.9V314.4c7.6,16.4,19.2,26.5,32.1,26.5C1446.8,340.9,1462.1,307.9,1462.1,257.7Z" fill="#fff"/><path d="M1699.9,329.2c-3.6,19.3-31.4,33-61.5,33-39.8,0-68.3-24.1-68.3-56.3V165.3h-22.9v-8h22.9V114.7l75.5-15.3v57.9h46.6v8h-46.6V318c0,15.6,9.7,27.3,22.9,27.3,10.9,0,21.3-8.4,25-19.3Z" fill="#fff"/><path d="M1715.1,100.6c0-22.5,17.3-38.9,40.6-38.9s38.2,16.4,38.2,38.9-16.1,39.4-38.2,39.4S1715.1,123.1,1715.1,100.6Zm1.7,66.3,75.5-11.6V358.1h-75.5Z" fill="#fff"/><path d="M1824.4,257.7c0-59.4,48.2-104.4,111.7-104.4s111.7,45,111.7,104.4S2000,362.2,1936.1,362.2,1824.4,317.2,1824.4,257.7Zm146.2,0c0-61-12.8-96.4-34.5-96.4s-34.6,35.4-34.6,96.4,12.9,96.4,34.6,96.4S1970.6,318.8,1970.6,257.7Z" fill="#fff"/><path d="M2284,155.3V358.1h-75.5V326c-13.7,21.7-38.2,36.2-65.1,36.2-37,0-66.7-27.8-66.7-65.5V166.9l75.5-11.6V314c0,14.4,9.7,25.3,22.5,25.3s26.1-12.5,33.8-31V166.9Z" fill="#fff"/><path d="M2494.1,297.5c0,38.1-32.2,64.7-90,64.7-49.8,0-87.2-19.7-88-43.8V318c0-15.3,11.3-26.1,27.3-26.1,14.1,0,24.9,10.8,24.9,26.1,0,13.2-8.4,23.3-19.6,25.7,11.6,5.6,27.3,9.2,45.7,9.2,27.8,0,46.6-8.4,46.6-24.5,0-14-16.8-22.5-48.2-37.3-25.3-11.7-75.9-28.6-75.9-74.4,0-38.9,35.4-63.4,88.8-63.4,44.6,0,77.9,17.2,78.7,39.3v.4c0,15.3-10.8,26.2-25.3,26.2s-26.9-10.9-26.9-26.2c0-12,7.2-21.3,17.7-24.5-9.7-4-21.3-6-35-6-26.9,0-44.6,8.8-44.6,25.3s16.9,22.9,47.8,36.6S2494.1,253.3,2494.1,297.5Z" fill="#fff"/><path d="M2832.7,275.4c0,50.6-45,86.8-112.5,86.8-60.2,0-109.6-29.4-109.6-67.9,0-16.9,12.8-29.8,30.9-29.8,16.5,0,28.9,12.9,28.9,29.8S2658,324,2641.5,324a19.5,19.5,0,0,1-4.8-.4c14,16.5,38.9,26.9,68.3,26.9,37.7,0,65-17.3,65-43,0-27.3-30.9-40.5-65-55.4-42.6-18.1-90.8-37.8-90.8-92s46.2-87.2,108.8-87.2c55.5,0,98.9,26.9,98.9,63.5,0,16.9-12.9,29.7-29,29.7-18,0-30.9-12.8-30.9-29.7s12.9-29.7,30.9-29.7h2.5c-12.9-14.1-34.6-22.5-59.5-22.5-36.2,0-62.7,19.3-62.7,46.2,0,30.1,33.4,43.4,69.5,57.8C2786.1,205.5,2832.7,224,2832.7,275.4Z" fill="#fff"/><path d="M3161.7,157.3l-88,200.8h-24.5l-50.6-115.6L2948,358.1h-24.5l-88-200.8h80l54.2,126.1L2993,230l-31.7-72.7h79.9L3095.4,283l55.1-125.7Z" fill="#fff"/><path d="M3365,306.3c0,31.8-41,55.9-90.8,55.9-69.1,0-118.1-45-118.1-105.3s48.6-103.6,109.3-103.6c58.6,0,101.2,41.7,101.2,97.6H3233.2c.4,68.3,23.3,97.2,64.3,97.2,13.7,0,25.7-3.2,35-9.2-19.3,0-33.4-14.1-33.4-32.6s14.5-32.5,34.2-32.5C3350.9,273.8,3365,287.8,3365,306.3Zm-131.8-63.4h63.5c-.8-52.3-12.5-81.6-30.5-81.6C3246.1,161.3,3234,196.3,3233.2,242.9Z" fill="#fff"/><path d="M3598.8,306.3c0,31.8-41,55.9-90.8,55.9-69.1,0-118.1-45-118.1-105.3s48.6-103.6,109.3-103.6c58.6,0,101.2,41.7,101.2,97.6H3467c.4,68.3,23.3,97.2,64.3,97.2,13.7,0,25.7-3.2,34.9-9.2-19.2,0-33.3-14.1-33.3-32.6s14.5-32.5,34.2-32.5C3584.7,273.8,3598.8,287.8,3598.8,306.3ZM3467,242.9h63.5c-.8-52.3-12.5-81.6-30.5-81.6C3479.9,161.3,3467.8,196.3,3467,242.9Z" fill="#fff"/><path d="M3761.5,329.2c-3.6,19.3-31.3,33-61.5,33-39.7,0-68.3-24.1-68.3-56.3V165.3h-22.9v-8h22.9V114.7l75.6-15.3v57.9h46.6v8h-46.6V318c0,15.6,9.6,27.3,22.9,27.3,10.8,0,21.2-8.4,24.9-19.3Z" fill="#fff"/><path d="M3946.7,297.5c0,38.1-32.2,64.7-90,64.7-49.8,0-87.2-19.7-88-43.8V318c0-15.3,11.3-26.1,27.3-26.1,14.1,0,24.9,10.8,24.9,26.1,0,13.2-8.4,23.3-19.6,25.7,11.6,5.6,27.3,9.2,45.8,9.2,27.7,0,46.6-8.4,46.6-24.5,0-14-16.9-22.5-48.2-37.3-25.4-11.7-76-28.6-76-74.4,0-38.9,35.4-63.4,88.8-63.4,44.6,0,77.9,17.2,78.7,39.3v.4c0,15.3-10.8,26.2-25.3,26.2s-26.9-10.9-26.9-26.2c0-12,7.3-21.3,17.7-24.5-9.6-4-21.3-6-35-6-26.9,0-44.5,8.8-44.5,25.3s16.8,22.9,47.8,36.6S3946.7,253.3,3946.7,297.5Z" fill="#fff"/></svg>