<?xml version="1.0" encoding="utf-8"?>
<!-- Generator: Adobe Illustrator 24.0.1, SVG Export Plug-In . SVG Version: 6.00 Build 0)  -->
<svg version="1.1" id="Layer_1" xmlns="http://www.w3.org/2000/svg" xmlns:xlink="http://www.w3.org/1999/xlink" x="0px" y="0px"
	 viewBox="0 0 2808.7 319.6" style="enable-background:new 0 0 2808.7 319.6;" xml:space="preserve">
<style type="text/css">
	.st0{fill:#465D58;}
	.st1{fill:#FFFFFF;}
</style>
<path class="st0" d="M0,0h2808.7v319.6H0L0,0z"/>
<g>
	<path class="st1" d="M466.4,173.2c0,31.8-28.3,54.6-70.7,54.6c-37.9,0-69-18.5-69-42.7c0-10.6,8.1-18.7,19.5-18.7
		c10.3,0,18.2,8.1,18.2,18.7s-7.9,18.7-18.2,18.7c-1,0-2,0-3-0.3c8.8,10.4,24.5,16.9,42.9,16.9c23.8,0,40.9-10.9,40.9-27
		c0-17.2-19.4-25.5-40.9-34.8c-26.7-11.4-57-23.8-57-57.9s29.1-54.8,68.4-54.8c34.9,0,62.1,16.9,62.1,39.9c0,10.6-8,18.7-18.2,18.7
		c-11.4,0-19.4-8-19.4-18.7s8-18.7,19.4-18.7h1.5c-8-8.9-21.7-14.1-37.4-14.1c-22.8,0-39.4,12.1-39.4,29.1c0,18.9,21,27.3,43.7,36.3
		C437.1,129.2,466.4,140.9,466.4,173.2L466.4,173.2z"/>
	<path class="st1" d="M603,205.2c-7,12.9-27.3,22.5-51.5,22.5c-40.7,0-71.2-28.3-71.2-65.7s30.6-65.6,71-65.6
		c29.3,0,51.5,15.7,51.5,36.3c0,11.4-8.6,20.2-19.9,20.2c-12.4,0-21.5-8.9-21.5-20.2s9.1-20.4,21.5-20.4c1.5,0,3.1,0.3,4.5,0.8
		c-5-4.8-12.4-7.6-20.9-7.6c-23.8,0-37.7,21-37.7,56.6s14.7,56.1,39.4,56.1c12.6,0,24.5-6.5,29.6-16.2L603,205.2z"/>
	<path class="st1" d="M729.4,124.9c0,11.6-8.6,20.4-20,20.4c-11.4,0-21.2-8.9-21.2-20.4s9.1-20.5,21.2-20.5h0.8
		c-3.3-1.7-6.9-2.5-10.6-2.5c-14.7,0-26.8,11.1-32.1,28.5v94.7H620V104.9l47.5-7.3v21.4c6.5-14.1,18.4-22.7,33.1-22.7
		C718,96.4,729.4,107.7,729.4,124.9L729.4,124.9z"/>
	<path class="st1" d="M872.6,97.7v127.5h-47.5V205c-8.9,14.1-24.3,22.7-40.9,22.8c-23.2,0-41.9-17.5-41.9-41.2v-81.6l47.5-7.3v99.8
		c0,9.1,6,15.9,14.1,15.9c8.1,0,16.4-7.9,21.2-19.5v-88.9L872.6,97.7z"/>
	<path class="st1" d="M1110.8,137.5v87.7h-47.5v-98.5c0-9.1-5.8-15.9-13.6-15.9s-17.2,8.6-21.4,20.9c0.2,1.9,0.3,3.9,0.3,5.8v87.7
		H981v-98.5c0-9.1-5.8-15.9-13.6-15.9s-16.4,8-21,19.7v94.7h-47.5V104.9l47.5-7.3v21.4c8.6-13.6,23.8-22.7,40.7-22.7
		c18.2,0,33.3,10.8,39.2,27c8-16.5,24.6-27,42.9-27C1092.3,96.4,1110.8,113.8,1110.8,137.5L1110.8,137.5z"/>
	<path class="st1" d="M1276,162c0,37.4-23.3,65.7-54.1,65.7c-15.3,0-29.7-7.2-38.9-19.5v72.5h-47.5V104.9l47.5-7.3v19.2
		c8.3-12.4,23.2-20.4,39.4-20.4C1253,96.4,1276,124.7,1276,162L1276,162z M1227.5,162c0-31.3-9.6-52.3-23.3-52.3
		c-8.6,0-16.4,7-21.2,18.2v69.7c4.8,10.3,12.1,16.7,20.2,16.7C1217.9,214.4,1227.5,193.6,1227.5,162z"/>
	<path class="st1" d="M1377,207c-2.3,12.1-19.7,20.8-38.7,20.8c-25,0-42.9-15.2-42.9-35.4v-88.4H1281v-5h14.4V72.1l47.5-9.6v36.4
		h29.3v5h-29.3v96c0,9.8,6.1,17.2,14.4,17.2c6.9,0,13.4-5.3,15.7-12.1L1377,207z"/>
	<path class="st1" d="M1386.6,63.3c0-14.1,10.9-24.5,25.5-24.5s24,10.3,24,24.5S1426,88,1412.1,88
		C1398.2,88,1386.6,77.4,1386.6,63.3z M1387.7,104.9l47.5-7.3v127.5h-47.5V104.9z"/>
	<path class="st1" d="M1455.3,162c0-37.4,30.3-65.6,70.2-65.6s70.2,28.3,70.2,65.6s-30.1,65.7-70.2,65.7S1455.3,199.5,1455.3,162z
		 M1547.3,162c0-38.4-8-60.6-21.7-60.6s-21.8,22.3-21.8,60.6s8.1,60.6,21.8,60.6S1547.3,200.5,1547.3,162z"/>
	<path class="st1" d="M1744.3,97.7v127.5h-47.5V205c-8.6,13.6-24,22.8-40.9,22.8c-23.3,0-41.9-17.5-41.9-41.2v-81.6l47.5-7.3v99.8
		c0,9.1,6.1,15.9,14.1,15.9c8,0,16.4-7.9,21.3-19.5v-88.9L1744.3,97.7z"/>
	<path class="st1" d="M1876.5,187.1c0,24-20.2,40.7-56.6,40.7c-31.3,0-54.8-12.4-55.3-27.5V200c0-9.6,7.1-16.4,17.2-16.4
		c8.9,0,15.7,6.8,15.7,16.4c0,8.3-5.3,14.7-12.3,16.2c7.3,3.5,17.2,5.8,28.7,5.8c17.5,0,29.3-5.3,29.3-15.4
		c0-8.8-10.6-14.1-30.3-23.5c-15.9-7.4-47.7-18-47.7-46.8c0-24.5,22.3-39.9,55.8-39.9c28,0,49,10.8,49.5,24.7v0.3
		c0,9.6-6.8,16.5-15.9,16.5s-16.9-6.9-16.9-16.5c0-7.5,4.5-13.4,11.1-15.4c-6.1-2.5-13.4-3.8-22-3.8c-16.9,0-28,5.5-28,15.9
		s10.6,14.4,30.1,23C1848.1,149.7,1876.5,159.3,1876.5,187.1L1876.5,187.1z"/>
	<path class="st1" d="M2089.4,173.2c0,31.8-28.3,54.6-70.7,54.6c-37.9,0-68.9-18.5-68.9-42.7c0-10.6,8-18.7,19.4-18.7
		c10.4,0,18.2,8.1,18.2,18.7s-7.8,18.7-18.2,18.7c-1,0-2,0-3-0.3c8.8,10.4,24.5,16.9,42.9,16.9c23.7,0,40.9-10.9,40.9-27
		c0-17.2-19.4-25.5-40.9-34.8c-26.8-11.4-57.1-23.8-57.1-57.9s29.1-54.8,68.4-54.8c34.9,0,62.2,16.9,62.2,39.9
		c0,10.6-8.1,18.7-18.2,18.7c-11.3,0-19.4-8-19.4-18.7s8.1-18.7,19.4-18.7h1.6c-8.1-8.9-21.8-14.1-37.4-14.1
		c-22.8,0-39.4,12.1-39.4,29.1c0,18.9,21,27.3,43.7,36.3C2060.1,129.2,2089.4,140.9,2089.4,173.2L2089.4,173.2z"/>
	<path class="st1" d="M2296.3,98.9l-55.3,126.3h-15.4l-31.8-72.7l-31.8,72.7h-15.4l-55.3-126.3h50.3l34.1,79.3l14.7-33.6l-19.9-45.7
		h50.2l34.1,79l34.6-79H2296.3z"/>
	<path class="st1" d="M2424.1,192.6c0,20-25.8,35.2-57.1,35.2c-43.5,0-74.3-28.3-74.3-66.2s30.6-65.1,68.7-65.1
		c36.8,0,63.6,26.2,63.6,61.4h-83.9c0.3,42.9,14.7,61.1,40.4,61.1c8.6,0,16.2-2,22-5.8c-12.1,0-21-8.9-21-20.5
		c0-11.6,9.1-20.4,21.5-20.4C2415.2,172.2,2424.1,181,2424.1,192.6L2424.1,192.6z M2341.2,152.7h39.9c-0.5-32.9-7.9-51.3-19.2-51.3
		C2349.3,101.4,2341.7,123.4,2341.2,152.7z"/>
	<path class="st1" d="M2571.1,192.6c0,20-25.8,35.2-57.1,35.2c-43.5,0-74.3-28.3-74.3-66.2s30.6-65.1,68.7-65.1
		c36.8,0,63.6,26.2,63.6,61.4h-83.9c0.3,42.9,14.7,61.1,40.4,61.1c8.6,0,16.2-2,21.9-5.8c-12.1,0-20.9-8.9-20.9-20.5
		c0-11.6,9.1-20.4,21.5-20.4C2562.2,172.2,2571.1,181,2571.1,192.6L2571.1,192.6z M2488.2,152.7h39.9c-0.5-32.9-7.9-51.3-19.2-51.3
		C2496.3,101.4,2488.7,123.4,2488.2,152.7z"/>
	<path class="st1" d="M2673.4,207c-2.3,12.1-19.7,20.8-38.7,20.8c-25,0-42.9-15.2-42.9-35.4v-88.4h-14.4v-5h14.4V72.1l47.5-9.6v36.4
		h29.3v5h-29.3v96c0,9.8,6,17.2,14.4,17.2c6.8,0,13.3-5.3,15.7-12.1L2673.4,207z"/>
	<path class="st1" d="M2789.9,187.1c0,24-20.2,40.7-56.6,40.7c-31.3,0-54.8-12.4-55.3-27.5V200c0-9.6,7.1-16.4,17.2-16.4
		c8.9,0,15.7,6.8,15.7,16.4c0,8.3-5.3,14.7-12.3,16.2c7.3,3.5,17.2,5.8,28.8,5.8c17.4,0,29.3-5.3,29.3-15.4
		c0-8.8-10.6-14.1-30.3-23.5c-16-7.4-47.8-18-47.8-46.8c0-24.5,22.3-39.9,55.8-39.9c28,0,49,10.8,49.5,24.7v0.3
		c0,9.6-6.8,16.5-15.9,16.5c-9.1,0-16.9-6.9-16.9-16.5c0-7.5,4.6-13.4,11.1-15.4c-6-2.5-13.4-3.8-22-3.8c-16.9,0-28,5.5-28,15.9
		s10.6,14.4,30.1,23C2761.6,149.7,2789.9,159.3,2789.9,187.1L2789.9,187.1z"/>
</g>
<g>
	<path class="st1" d="M181,103.8c5.4,0,9.7,4.7,9.1,10.1c-5,44.6-42.8,79.2-88.7,79.2s-83.7-34.6-88.7-79.2
		c-0.6-5.4,3.7-10.1,9.1-10.1H181z"/>
	<g>
		<g>
			<g>
				<g>
					<path class="st1" d="M97.6,9.5c0,9.2,0,18.3,0,27.5c0,14.5,0,29,0,43.4c0,3.3,0,6.6,0,9.9c0,2,1.7,3.8,3.8,3.8
						c2-0.1,3.8-1.6,3.8-3.8c0-9.2,0-18.3,0-27.5c0-14.5,0-29,0-43.4c0-3.3,0-6.6,0-9.9c0-2-1.7-3.8-3.8-3.7
						C99.4,5.8,97.6,7.4,97.6,9.5L97.6,9.5z"/>
				</g>
			</g>
			<g>
				<g>
					<g>
						<path class="st1" d="M80.8,49.3c5.2,5.2,10.4,10.4,15.6,15.6c0.7,0.7,1.5,1.5,2.2,2.2c1.4,1.4,3.9,1.5,5.3,0
							c1.4-1.5,1.5-3.8,0-5.3c-5.2-5.2-10.4-10.4-15.6-15.6c-0.7-0.7-1.5-1.5-2.2-2.2c-1.4-1.4-3.9-1.5-5.3,0
							C79.4,45.4,79.3,47.8,80.8,49.3L80.8,49.3z"/>
					</g>
				</g>
				<g>
					<g>
						<path class="st1" d="M116.7,43.9c-5.2,5.2-10.4,10.4-15.6,15.6c-0.7,0.7-1.5,1.5-2.2,2.2c-1.4,1.4-1.5,3.9,0,5.3
							c1.5,1.4,3.8,1.5,5.3,0c5.2-5.2,10.4-10.4,15.6-15.6c0.7-0.7,1.5-1.5,2.2-2.2c1.4-1.4,1.5-3.9,0-5.3
							C120.5,42.6,118.2,42.5,116.7,43.9L116.7,43.9z"/>
					</g>
				</g>
			</g>
			<g>
				<g>
					<g>
						<path class="st1" d="M80.8,22.9c5.2,5.2,10.4,10.4,15.6,15.6c0.7,0.7,1.5,1.5,2.2,2.2c1.4,1.4,3.9,1.5,5.3,0
							c1.4-1.5,1.5-3.8,0-5.3C98.7,30.2,93.5,25,88.3,19.8c-0.7-0.7-1.5-1.5-2.2-2.2c-1.4-1.4-3.9-1.5-5.3,0
							C79.4,19.1,79.3,21.4,80.8,22.9L80.8,22.9z"/>
					</g>
				</g>
				<g>
					<g>
						<path class="st1" d="M116.7,17.6c-5.2,5.2-10.4,10.4-15.6,15.6c-0.7,0.7-1.5,1.5-2.2,2.2c-1.4,1.4-1.5,3.9,0,5.3
							c1.5,1.4,3.8,1.5,5.3,0c5.2-5.2,10.4-10.4,15.6-15.6c0.7-0.7,1.5-1.5,2.2-2.2c1.4-1.4,1.5-3.9,0-5.3
							C120.5,16.2,118.2,16.1,116.7,17.6L116.7,17.6z"/>
					</g>
				</g>
			</g>
		</g>
		<g>
			<g>
				<g>
					<path class="st1" d="M27.3,57.3c8.2,4.1,16.4,8.2,24.6,12.3c12.9,6.5,25.9,13,38.8,19.5c2.9,1.5,5.9,3,8.8,4.4
						c1.8,0.9,4.1,0.5,5.1-1.3c1-1.7,0.5-4.2-1.3-5.1c-8.2-4.1-16.4-8.2-24.6-12.3c-12.9-6.5-25.9-13-38.8-19.5
						c-2.9-1.5-5.9-3-8.8-4.4c-1.8-0.9-4.1-0.5-5.1,1.3C25,53.8,25.5,56.4,27.3,57.3L27.3,57.3z"/>
				</g>
			</g>
			<g>
				<g>
					<g>
						<path class="st1" d="M55.3,90.4c7-2.3,14-4.6,20.9-6.9c1-0.3,2-0.7,3-1c1.9-0.6,3.3-2.6,2.6-4.6c-0.6-1.9-2.6-3.3-4.6-2.6
							c-7,2.3-14,4.6-20.9,6.9c-1,0.3-2,0.7-3,1c-1.9,0.6-3.3,2.6-2.6,4.6C51.2,89.6,53.3,91,55.3,90.4L55.3,90.4z"/>
					</g>
				</g>
				<g>
					<g>
						<path class="st1" d="M66.8,55.6c2.3,7,4.6,14,6.9,20.9c0.3,1,0.7,2,1,3c0.6,1.9,2.6,3.3,4.6,2.6c1.9-0.6,3.3-2.6,2.6-4.6
							c-2.3-7-4.6-14-6.9-20.9c-0.3-1-0.7-2-1-3c-0.6-1.9-2.6-3.3-4.6-2.6C67.5,51.6,66.1,53.6,66.8,55.6L66.8,55.6z"/>
					</g>
				</g>
			</g>
			<g>
				<g>
					<g>
						<path class="st1" d="M31.7,78.6c7-2.3,14-4.6,20.9-6.9c1-0.3,2-0.7,3-1c1.9-0.6,3.3-2.6,2.6-4.6c-0.6-1.9-2.6-3.3-4.6-2.6
							c-7,2.3-14,4.6-20.9,6.9c-1,0.3-2,0.7-3,1C27.9,72,26.5,74,27.1,76C27.7,77.8,29.7,79.2,31.7,78.6L31.7,78.6z"/>
					</g>
				</g>
				<g>
					<g>
						<path class="st1" d="M43.2,43.8c2.3,7,4.6,14,6.9,20.9c0.3,1,0.7,2,1,3c0.6,1.9,2.6,3.3,4.6,2.6c1.9-0.6,3.3-2.6,2.6-4.6
							c-2.3-7-4.6-14-6.9-20.9c-0.3-1-0.7-2-1-3c-0.6-1.9-2.6-3.3-4.6-2.6C44,39.8,42.6,41.8,43.2,43.8L43.2,43.8z"/>
					</g>
				</g>
			</g>
		</g>
		<g>
			<g>
				<g>
					<path class="st1" d="M171.7,50.8c-8.2,4.1-16.4,8.2-24.6,12.3c-12.9,6.5-25.9,13-38.8,19.5c-2.9,1.5-5.9,3-8.8,4.4
						c-1.8,0.9-2.3,3.5-1.3,5.1c1.1,1.8,3.3,2.3,5.1,1.3c8.2-4.1,16.4-8.2,24.6-12.3c12.9-6.5,25.9-13,38.8-19.5
						c2.9-1.5,5.9-3,8.8-4.4c1.8-0.9,2.3-3.5,1.3-5.1C175.8,50.3,173.5,49.9,171.7,50.8L171.7,50.8z"/>
				</g>
			</g>
			<g>
				<g>
					<g>
						<path class="st1" d="M149.5,83.2c-7-2.3-14-4.6-20.9-6.9c-1-0.3-2-0.7-3-1c-1.9-0.6-4.2,0.7-4.6,2.6c-0.5,2.1,0.6,4,2.6,4.6
							c7,2.3,14,4.6,20.9,6.9c1,0.3,2,0.7,3,1c1.9,0.6,4.2-0.7,4.6-2.6C152.6,85.7,151.5,83.8,149.5,83.2L149.5,83.2z"/>
					</g>
				</g>
				<g>
					<g>
						<path class="st1" d="M128.8,53.6c-2.3,7-4.6,14-6.9,20.9c-0.3,1-0.7,2-1,3c-0.6,1.9,0.7,4.2,2.6,4.6c2.1,0.5,4-0.6,4.6-2.6
							c2.3-7,4.6-14,6.9-20.9c0.3-1,0.7-2,1-3c0.6-1.9-0.7-4.2-2.6-4.6C131.3,50.6,129.4,51.7,128.8,53.6L128.8,53.6z"/>
					</g>
				</g>
			</g>
			<g>
				<g>
					<g>
						<path class="st1" d="M173.1,71.4c-7-2.3-14-4.6-20.9-6.9c-1-0.3-2-0.7-3-1c-1.9-0.6-4.2,0.7-4.6,2.6c-0.5,2.1,0.6,4,2.6,4.6
							c7,2.3,14,4.6,20.9,6.9c1,0.3,2,0.7,3,1c1.9,0.6,4.2-0.7,4.6-2.6C176.2,73.9,175.1,72,173.1,71.4L173.1,71.4z"/>
					</g>
				</g>
				<g>
					<g>
						<path class="st1" d="M152.3,41.8c-2.3,7-4.6,14-6.9,20.9c-0.3,1-0.7,2-1,3c-0.6,1.9,0.7,4.2,2.6,4.6c2.1,0.5,4-0.6,4.6-2.6
							c2.3-7,4.6-14,6.9-20.9c0.3-1,0.7-2,1-3c0.6-1.9-0.7-4.2-2.6-4.6C154.9,38.7,153,39.8,152.3,41.8L152.3,41.8z"/>
					</g>
				</g>
			</g>
		</g>
	</g>
	<path class="st1" d="M164.3,195.9c-10.1,0-19.1,3-25.1,7.7c-6.4,5-14.2,7.8-22.3,7.4c-31.5-1.5-99.3-4.9-99.3-4.9
		c-6.5-0.3-11.9,4.8-11.9,11.3v0c0,6.5,5.4,11.6,11.9,11.3c0,0,67.8-3.3,99.3-4.9c8.1-0.4,15.9,2.4,22.3,7.4
		c6,4.7,15.1,7.7,25.1,7.7c18.1,0,32.8-9.6,32.8-21.4C197.1,205.5,182.4,195.9,164.3,195.9z"/>
</g>
</svg>
