<svg id="Layer_1" data-name="Layer 1" xmlns="http://www.w3.org/2000/svg" viewBox="0 0 2808.67 319.56"><defs><style>.cls-1{fill:#465d58;}.cls-2{fill:#fff;}</style></defs><title>Artboard 1</title><path class="cls-1" d="M0,0H2808.67V319.56H0Z"/><path class="cls-2" d="M466.4,173.18c0,31.81-28.3,54.58-70.74,54.58-37.86,0-69-18.49-69-42.7,0-10.63,8.11-18.74,19.49-18.74,10.31,0,18.17,8.11,18.17,18.74s-7.86,18.68-18.17,18.68a12.26,12.26,0,0,1-3-.26C352,213.86,367.61,220.4,386,220.4c23.77,0,40.93-10.88,40.93-27,0-17.17-19.43-25.47-40.93-34.84-26.73-11.38-57-23.76-57-57.85s29.05-54.83,68.42-54.83c34.9,0,62.12,16.92,62.12,39.93,0,10.63-8,18.68-18.17,18.68-11.38,0-19.43-8-19.43-18.68S430,67.09,441.37,67.09h1.51C434.83,58.23,421.19,53,405.53,53,382.77,53,366.1,65.08,366.1,82c0,18.92,21,27.29,43.71,36.34,27.29,10.88,56.59,22.51,56.59,54.84Z"/><path class="cls-2" d="M603,205.25c-7,12.89-27.29,22.51-51.5,22.51-40.68,0-71.24-28.3-71.24-65.71s30.56-65.65,71-65.65c29.3,0,51.5,15.65,51.5,36.34,0,11.38-8.55,20.25-19.93,20.25-12.39,0-21.51-8.87-21.51-20.25s9.12-20.43,21.51-20.43a14.19,14.19,0,0,1,4.52.75c-5-4.84-12.38-7.61-20.94-7.61-23.77,0-37.66,21-37.66,56.6s14.65,56.09,39.42,56.09c12.64,0,24.46-6.54,29.56-16.16Z"/><path class="cls-2" d="M729.37,125c0,11.57-8.62,20.43-20,20.43s-21.19-8.86-21.19-20.43,9.12-20.5,21.19-20.5h.76a23.4,23.4,0,0,0-10.57-2.52c-14.65,0-26.78,11.13-32.07,28.55v94.7H620V105l47.53-7.29V119.1C674,105,685.92,96.4,700.57,96.4c17.42,0,28.8,11.32,28.8,28.55Z"/><path class="cls-2" d="M872.55,97.66V225.18H825.08V205a48.68,48.68,0,0,1-40.94,22.77c-23.2,0-41.88-17.48-41.88-41.19V105l47.48-7.29v99.79c0,9.05,6,15.91,14.14,15.91s16.42-7.86,21.2-19.5V105Z"/><path class="cls-2" d="M1110.81,137.52v87.66h-47.54V126.71c0-9.12-5.78-15.91-13.64-15.91s-17.17,8.55-21.45,20.94a42.93,42.93,0,0,1,.25,5.78v87.66H981V126.71c0-9.12-5.85-15.91-13.65-15.91s-16.41,8-21,19.68v94.7H898.84V105l47.47-7.29V119.1A48.32,48.32,0,0,1,987,96.4c18.17,0,33.32,10.81,39.17,27a47.92,47.92,0,0,1,42.95-27c23.2,0,41.69,17.42,41.69,41.12Z"/><path class="cls-2" d="M1276,162.05c0,37.41-23.27,65.71-54.08,65.71a48.55,48.55,0,0,1-38.86-19.5v72.51h-47.54V105l47.54-7.29v19.17c8.3-12.38,23.2-20.43,39.36-20.43,30.56,0,53.58,28.29,53.58,65.65Zm-48.48,0c0-31.32-9.62-52.26-23.27-52.26-8.61,0-16.41,7-21.19,18.17V197.7c4.78,10.31,12.07,16.66,20.18,16.66C1217.9,214.36,1227.52,193.61,1227.52,162.05Z"/><path class="cls-2" d="M1377.05,207c-2.26,12.13-19.75,20.75-38.67,20.75-25,0-43-15.16-43-35.41V103.94H1281v-5h14.4V72.13l47.47-9.63V98.91h29.31v5H1342.9v96c0,9.81,6.1,17.17,14.4,17.17,6.86,0,13.4-5.28,15.72-12.14Z"/><path class="cls-2" d="M1386.61,63.26c0-14.15,10.88-24.46,25.53-24.46s24,10.31,24,24.46S1426,88,1412.14,88,1386.61,77.41,1386.61,63.26Zm1.07,41.69,47.47-7.29V225.18h-47.47Z"/><path class="cls-2" d="M1455.34,162.05c0-37.36,30.31-65.65,70.24-65.65s70.23,28.29,70.23,65.65-30,65.71-70.23,65.71S1455.34,199.46,1455.34,162.05Zm91.93,0c0-38.36-8-60.62-21.69-60.62s-21.76,22.26-21.76,60.62,8.11,60.61,21.76,60.61S1547.27,200.47,1547.27,162.05Z"/><path class="cls-2" d="M1744.34,97.66V225.18h-47.47V205a48.83,48.83,0,0,1-40.94,22.77c-23.27,0-41.94-17.48-41.94-41.19V105l47.47-7.29v99.79c0,9.05,6.1,15.91,14.15,15.91s16.41-7.86,21.26-19.5V105Z"/><path class="cls-2" d="M1876.45,187.07c0,24-20.24,40.69-56.59,40.69-31.31,0-54.83-12.39-55.33-27.55V200c0-9.62,7.1-16.41,17.16-16.41,8.87,0,15.66,6.79,15.66,16.41,0,8.3-5.28,14.65-12.33,16.16,7.3,3.53,17.17,5.79,28.74,5.79,17.48,0,29.3-5.28,29.3-15.41,0-8.8-10.56-14.15-30.3-23.45-15.91-7.36-47.73-18-47.73-46.79,0-24.46,22.26-39.86,55.84-39.86,28,0,49,10.81,49.49,24.71v.25c0,9.62-6.8,16.48-15.91,16.48s-16.92-6.86-16.92-16.48a15.62,15.62,0,0,1,11.13-15.4c-6.1-2.52-13.39-3.78-22-3.78-16.91,0-28,5.54-28,15.91s10.62,14.4,30.05,23,47.79,18.17,47.79,46Z"/><path class="cls-2" d="M2089.37,173.18c0,31.81-28.29,54.58-70.74,54.58-37.85,0-68.92-18.49-68.92-42.7,0-10.63,8-18.74,19.43-18.74,10.38,0,18.17,8.11,18.17,18.74s-7.79,18.68-18.17,18.68a12.3,12.3,0,0,1-3-.26c8.81,10.38,24.46,16.92,43,16.92,23.71,0,40.87-10.88,40.87-27,0-17.17-19.43-25.47-40.87-34.84-26.79-11.38-57.09-23.76-57.09-57.85s29-54.83,68.41-54.83c34.9,0,62.19,16.92,62.19,39.93,0,10.63-8.11,18.68-18.24,18.68-11.31,0-19.43-8-19.43-18.68s8.12-18.68,19.43-18.68h1.58C2057.81,58.23,2044.16,53,2028.5,53c-22.76,0-39.42,12.13-39.42,29.05,0,18.92,21,27.29,43.7,36.34,27.29,10.88,56.59,22.51,56.59,54.84Z"/><path class="cls-2" d="M2296.25,98.91l-55.33,126.27h-15.41l-31.82-72.69-31.82,72.69h-15.4L2091.13,98.91h50.31l34.08,79.3,14.65-33.58-19.93-45.72h50.24l34.08,79,34.65-79Z"/><path class="cls-2" d="M2424.09,192.61c0,20-25.78,35.15-57.1,35.15-43.45,0-74.26-28.3-74.26-66.22s30.56-65.14,68.73-65.14c36.85,0,63.64,26.22,63.64,61.37h-83.89c.25,42.95,14.65,61.12,40.44,61.12,8.61,0,16.16-2,22-5.78-12.13,0-21-8.87-21-20.5s9.12-20.44,21.51-20.44c11.06,0,19.93,8.8,19.93,20.44Zm-82.88-39.87h39.93c-.5-32.89-7.86-51.31-19.18-51.31C2349.32,101.43,2341.72,123.44,2341.21,152.74Z"/><path class="cls-2" d="M2571.11,192.61c0,20-25.78,35.15-57.1,35.15-43.45,0-74.26-28.3-74.26-66.22s30.56-65.14,68.73-65.14c36.85,0,63.63,26.22,63.63,61.37h-83.88c.25,42.95,14.65,61.12,40.43,61.12,8.62,0,16.16-2,22-5.78-12.08,0-20.94-8.87-20.94-20.5s9.12-20.44,21.5-20.44c11.07,0,19.94,8.8,19.94,20.44Zm-82.88-39.87h39.93c-.5-32.89-7.86-51.31-19.18-51.31C2496.34,101.43,2488.73,123.44,2488.23,152.74Z"/><path class="cls-2" d="M2673.42,207c-2.27,12.13-19.69,20.75-38.68,20.75-25,0-42.94-15.16-42.94-35.41V103.94h-14.4v-5h14.4V72.13l47.53-9.63V98.91h29.31v5h-29.31v96c0,9.81,6,17.17,14.4,17.17,6.8,0,13.33-5.28,15.66-12.14Z"/><path class="cls-2" d="M2789.87,187.07c0,24-20.25,40.69-56.59,40.69-31.32,0-54.83-12.39-55.34-27.55V200c0-9.62,7.11-16.41,17.17-16.41,8.87,0,15.66,6.79,15.66,16.41,0,8.3-5.28,14.65-12.33,16.16,7.3,3.53,17.17,5.79,28.8,5.79,17.42,0,29.31-5.28,29.31-15.41,0-8.8-10.63-14.15-30.31-23.45-16-7.36-47.79-18-47.79-46.79,0-24.46,22.26-39.86,55.84-39.86,28,0,49,10.81,49.48,24.71v.25c0,9.62-6.79,16.48-15.91,16.48S2751,131,2751,121.36a15.69,15.69,0,0,1,11.13-15.4c-6-2.52-13.4-3.78-22-3.78-16.91,0-28,5.54-28,15.91s10.56,14.4,30.06,23,47.72,18.17,47.72,46Z"/><path class="cls-2" d="M213.32,121.11a10.81,10.81,0,0,1,10.79,11.94,105.69,105.69,0,0,1-210,0,10.81,10.81,0,0,1,10.79-11.94Z"/><path class="cls-2" d="M115.35,9.5V93.32c0,3.87-.13,7.77,0,11.64v.16a3.75,3.75,0,0,0,7.5,0V21.3c0-3.87.13-7.77,0-11.64V9.5a3.75,3.75,0,0,0-7.5,0Z"/><path class="cls-2" d="M95.17,56l18.44,18.44,2.62,2.63a3.75,3.75,0,1,0,5.31-5.3L103.1,53.37l-2.63-2.63a3.75,3.75,0,1,0-5.3,5.3Z"/><path class="cls-2" d="M137.72,50.74,119.28,69.18l-2.62,2.63a3.75,3.75,0,0,0,5.3,5.3L140.4,58.67,143,56a3.79,3.79,0,0,0,0-5.3,3.83,3.83,0,0,0-5.31,0Z"/><path class="cls-2" d="M95.17,24.89l18.44,18.44L116.23,46a3.75,3.75,0,0,0,5.31-5.3L103.1,22.21l-2.63-2.63a3.75,3.75,0,1,0-5.3,5.31Z"/><path class="cls-2" d="M137.72,19.58,119.28,38l-2.62,2.63A3.75,3.75,0,0,0,122,46L140.4,27.51,143,24.89a3.75,3.75,0,0,0-5.31-5.31Z"/><path class="cls-2" d="M31.74,65.45l8.5,4.27L60.63,80,85.31,92.35l21.35,10.72c3.46,1.74,6.9,3.53,10.4,5.22l.15.07a3.84,3.84,0,0,0,5.13-1.34,3.79,3.79,0,0,0-1.35-5.13l-8.49-4.27L92.1,87.38,67.42,75,46.08,64.27c-3.47-1.74-6.91-3.53-10.4-5.22L35.53,59a3.84,3.84,0,0,0-5.13,1.34,3.79,3.79,0,0,0,1.34,5.13Z"/><path class="cls-2" d="M64.32,104.54l24.75-8.2,3.52-1.17a3.83,3.83,0,0,0,2.62-4.61,3.78,3.78,0,0,0-4.61-2.62l-24.75,8.2-3.53,1.17a3.83,3.83,0,0,0-2.61,4.61,3.78,3.78,0,0,0,4.61,2.62Z"/><path class="cls-2" d="M78.8,63.89,87,88.65l1.17,3.52a3.83,3.83,0,0,0,4.61,2.62,3.79,3.79,0,0,0,2.62-4.61L87.2,65.42,86,61.9a3.84,3.84,0,0,0-4.61-2.62,3.79,3.79,0,0,0-2.62,4.61Z"/><path class="cls-2" d="M36.47,90.56l24.76-8.2,3.52-1.17a3.83,3.83,0,0,0,2.62-4.61A3.79,3.79,0,0,0,62.76,74L38,82.16l-3.52,1.17a3.83,3.83,0,0,0-2.62,4.61,3.79,3.79,0,0,0,4.61,2.62Z"/><path class="cls-2" d="M51,49.92l8.21,24.75,1.17,3.52a3.83,3.83,0,0,0,4.61,2.62,3.79,3.79,0,0,0,2.62-4.61L59.35,51.44l-1.16-3.52a3.85,3.85,0,0,0-4.62-2.62A3.79,3.79,0,0,0,51,49.92Z"/><path class="cls-2" d="M202.67,59l-8.49,4.27L173.78,73.5,149.1,85.89,127.75,96.61c-3.45,1.73-7,3.32-10.39,5.22l-.15.07a3.79,3.79,0,0,0-1.35,5.13,3.83,3.83,0,0,0,5.13,1.35l8.49-4.27,20.4-10.24,24.68-12.39,21.35-10.72c3.45-1.73,7-3.32,10.39-5.22l.15-.07A3.75,3.75,0,0,0,202.67,59Z"/><path class="cls-2" d="M175.87,97.33l-24.75-8.21L147.6,88A3.79,3.79,0,0,0,143,90.57a3.84,3.84,0,0,0,2.62,4.61l24.76,8.21,3.52,1.17a3.78,3.78,0,0,0,4.61-2.62,3.83,3.83,0,0,0-2.62-4.61Z"/><path class="cls-2" d="M152.17,61.92,144,86.67l-1.17,3.52a3.8,3.8,0,0,0,2.62,4.62A3.85,3.85,0,0,0,150,92.19l8.2-24.76,1.17-3.52a3.78,3.78,0,0,0-2.62-4.61,3.83,3.83,0,0,0-4.61,2.62Z"/><path class="cls-2" d="M203.72,83.35,179,75.14,175.44,74a3.79,3.79,0,0,0-4.61,2.62,3.83,3.83,0,0,0,2.62,4.61l24.75,8.21,3.52,1.17A3.79,3.79,0,0,0,206.34,88a3.84,3.84,0,0,0-2.62-4.61Z"/><path class="cls-2" d="M180,47.94l-8.2,24.75-1.17,3.52a3.78,3.78,0,0,0,2.62,4.62,3.84,3.84,0,0,0,4.61-2.62l8.21-24.76,1.16-3.52a3.77,3.77,0,0,0-2.62-4.61A3.83,3.83,0,0,0,180,47.94Z"/><path class="cls-2" d="M193.5,230c-11.95,0-22.63,3.52-29.76,9.06a39.9,39.9,0,0,1-26.38,8.72L19.85,242a13.36,13.36,0,0,0-14,13.35h0a13.36,13.36,0,0,0,14,13.35L137.36,263a39.9,39.9,0,0,1,26.38,8.72c7.13,5.54,17.81,9.06,29.76,9.06,21.47,0,38.87-11.37,38.87-25.39S215,230,193.5,230Z"/></svg>