<svg viewBox="0 0 2942.2 508.2" xmlns="http://www.w3.org/2000/svg"><path d="m244.7 40.3h2455.7c118.1 0 213.8 95.7 213.8 213.8 0 118.1-95.7 213.8-213.8 213.8h-2455.7c-118 0-213.7-95.7-213.7-213.8 0-118.1 95.7-213.8 213.7-213.8z" fill="#465d58"/><g fill="none"><path d="m244.7 45.8h2455.7c115 0 208.3 93.3 208.3 208.3 0 115-93.3 208.3-208.3 208.3h-2455.7c-115 0-208.3-93.3-208.3-208.3 0-115 93.3-208.3 208.3-208.3z" stroke="#fff" stroke-width="10.96"/><circle cx="2618.2" cy="226.7" r="87.7"/><circle cx="2618.2" cy="226.7" r="76.7" stroke="#fff" stroke-width="21.93"/><path d="m2678.5 276 37 30.9 28.7 23.9" stroke="#fff" stroke-linecap="round" stroke-width="21.93"/></g></svg>